# xmcd
#
# Track frame offsets: 
#        150
#        23445
#        37189
#        59459
#        81812
#        94506
#        116950
#        150578
#        165945
#        187255
#        211541
#        247019
#
# Disc length: 3753 seconds
#
# Revision: 1
# Processed by: cddbd v1.5.2PL0 Copyright (c) Steve Scherf et al.
# Submitted via: ExactAudioCopy v1.0b3
#
DISCID=950ea70c
DTITLE=Clarence 'Gatemouth' Brown - Gate's On The Heat 
DYEAR=1973
DGENRE=Blues
TTITLE0=Gate's On The Heat
TTITLE1=Man And His Environment
TTITLE2=Funky Mama
TTITLE3=Jelly, Jelly
TTITLE4=St Louis Blues
TTITLE5=Please Mr. Nixon
TTITLE6=The Drifter
TTITLE7=One Mint Julep
TTITLE8=River's Invitation
TTITLE9=Dollar's Got The Blues
TTITLE10=Traveling Mood
TTITLE11=Three Weeks And A Suitcase (Slow Funk)
EXTD=
EXTT0=
EXTT1=
EXTT2=
EXTT3=
EXTT4=
EXTT5=
EXTT6=
EXTT7=
EXTT8=
EXTT9=
EXTT10=
EXTT11=
PLAYORDER=
